<svg viewBox="0 0 93 93" xmlns="http://www.w3.org/2000/svg">
  <defs></defs>
  <g transform="matrix(0.037343, 0, 0, -0.037343, -13.522826, 109.357628)" fill="#000000" stroke="none" style="">
    <g>
      <path d="M1551 2843 c-61 -32 -76 -64 -74 -151 5 -143 -36 -222 -146 -281 -69
-37 -96 -66 -105 -116 -9 -47 17 -102 63 -132 40 -27 80 -29 126 -7 57 27 69
56 71 164 1 60 7 108 16 131 24 55 76 108 139 140 67 34 90 62 96 122 10 99
-99 176 -186 130z" style=""></path>
      <path d="M1013 2701 c-74 -46 -81 -130 -20 -219 69 -100 69 -202 2 -311 -40
-65 -46 -119 -16 -167 25 -40 83 -68 128 -61 110 18 152 128 84 222 -46 64
-61 107 -61 173 0 44 7 71 26 108 15 27 35 66 46 87 26 49 18 97 -26 144 -42
46 -112 56 -163 24z" style=""></path>
      <path d="M2050 2684 c-17 -15 -44 -52 -60 -84 -55 -108 -129 -152 -255 -151
-89 1 -129 -15 -161 -64 -44 -68 -4 -172 76 -196 77 -23 135 11 172 101 21 50
63 96 117 128 38 23 59 27 126 29 44 1 88 2 98 2 9 1 34 16 55 35 35 33 37 38
37 96 0 58 -2 63 -37 96 -32 29 -45 34 -87 34 -39 0 -56 -6 -81 -26z" style=""></path>
      <path d="M650 2333 c-28 -10 -70 -56 -81 -90 -23 -70 11 -128 101 -173 117
-59 160 -132 160 -273 0 -78 0 -80 38 -117 91 -91 222 -37 222 92 0 59 -32
100 -104 133 -59 26 -118 84 -141 137 -9 24 -15 68 -15 120 0 94 -18 136 -69
163 -30 15 -81 19 -111 8z" style=""></path>
      <path d="M2453 2312 c-17 -9 -52 -30 -77 -45 -86 -54 -192 -48 -285 16 -102
69 -213 26 -228 -90 -9 -71 72 -150 144 -139 17 2 62 23 98 45 109 65 196 67
298 5 70 -43 111 -51 160 -31 98 41 102 188 6 239 -42 23 -75 23 -116 0z" style=""></path>
      <path d="M2124 2031 c-21 -13 -38 -36 -49 -65 -17 -44 -17 -48 0 -92 26 -68
59 -84 170 -84 140 -1 209 -40 266 -153 34 -67 76 -97 134 -97 134 0 182 172
68 247 -20 13 -45 17 -114 15 -142 -4 -213 37 -274 159 -15 28 -40 58 -58 69
-41 25 -103 25 -143 1z" style=""></path>
      <path d="M485 1801 c-83 -57 -85 -177 -3 -226 26 -15 53 -19 128 -20 77 0 103
-5 135 -22 49 -26 96 -75 123 -128 53 -106 154 -132 227 -59 59 59 53 140 -14
197 -31 25 -38 27 -125 26 -72 -1 -102 3 -137 18 -55 25 -103 72 -133 132 -35
68 -67 93 -123 98 -37 3 -55 -1 -78 -16z" style=""></path>
      <path d="M2164 1701 c-20 -12 -38 -36 -49 -65 -30 -77 -3 -132 85 -176 79 -40
114 -72 144 -132 22 -44 26 -65 26 -140 0 -83 1 -89 31 -123 19 -21 46 -39 71
-45 34 -10 46 -8 84 10 51 25 77 66 77 121 0 58 -30 96 -99 129 -71 33 -135
100 -152 158 -7 22 -12 73 -12 113 0 56 -5 82 -20 106 -37 61 -124 82 -186 44z" style=""></path>
      <path d="M2051 1402 c-83 -42 -98 -125 -39 -214 77 -116 79 -211 6 -323 -69
-109 -19 -225 97 -225 48 0 92 24 115 63 31 50 26 96 -16 157 -80 116 -84 205
-13 321 37 62 41 75 36 115 -5 51 -34 89 -84 110 -42 18 -61 18 -102 -4z" style=""></path>
      <path d="M1167 1299 c-16 -4 -44 -19 -62 -34 -99 -75 -226 -73 -337 7 -22 15
-46 22 -77 22 -82 0 -131 -52 -131 -139 0 -37 6 -52 33 -81 26 -29 42 -37 80
-41 42 -5 54 -1 114 35 123 74 214 76 323 7 87 -56 179 -40 211 37 45 109 -45
219 -154 187z" style=""></path>
      <path d="M1769 1193 c-46 -28 -59 -63 -59 -153 0 -46 -5 -100 -12 -122 -16
-55 -81 -124 -148 -158 -41 -21 -62 -38 -74 -63 -49 -104 26 -209 139 -194 46
7 105 61 106 99 0 13 1 61 2 108 2 72 6 92 29 131 29 50 74 89 129 112 19 8
47 29 62 46 49 58 30 161 -35 197 -32 18 -108 17 -139 -3z" style=""></path>
      <path d="M1452 1159 c-35 -18 -49 -33 -77 -88 -60 -119 -128 -160 -261 -161
-68 0 -87 -4 -115 -23 -42 -28 -59 -60 -59 -113 0 -57 34 -105 87 -124 39 -13
46 -12 90 6 43 17 52 27 85 89 62 119 138 165 270 165 43 0 80 6 99 15 70 37
91 137 42 196 -26 30 -77 59 -105 59 -7 0 -32 -10 -56 -21z" style=""></path>
    </g>
  </g>
</svg>