<svg viewBox="0 0 358 100" xmlns="http://www.w3.org/2000/svg">
  <defs></defs>
  <g transform="matrix(0.037343, 0, 0, -0.037343, -13.522826, 109.357628)" fill="#000000" stroke="none" style="">
    <g>
      <path d="M1551 2843 c-61 -32 -76 -64 -74 -151 5 -143 -36 -222 -146 -281 -69
-37 -96 -66 -105 -116 -9 -47 17 -102 63 -132 40 -27 80 -29 126 -7 57 27 69
56 71 164 1 60 7 108 16 131 24 55 76 108 139 140 67 34 90 62 96 122 10 99
-99 176 -186 130z" style=""></path>
      <path d="M1013 2701 c-74 -46 -81 -130 -20 -219 69 -100 69 -202 2 -311 -40
-65 -46 -119 -16 -167 25 -40 83 -68 128 -61 110 18 152 128 84 222 -46 64
-61 107 -61 173 0 44 7 71 26 108 15 27 35 66 46 87 26 49 18 97 -26 144 -42
46 -112 56 -163 24z" style=""></path>
      <path d="M2050 2684 c-17 -15 -44 -52 -60 -84 -55 -108 -129 -152 -255 -151
-89 1 -129 -15 -161 -64 -44 -68 -4 -172 76 -196 77 -23 135 11 172 101 21 50
63 96 117 128 38 23 59 27 126 29 44 1 88 2 98 2 9 1 34 16 55 35 35 33 37 38
37 96 0 58 -2 63 -37 96 -32 29 -45 34 -87 34 -39 0 -56 -6 -81 -26z" style=""></path>
      <path d="M650 2333 c-28 -10 -70 -56 -81 -90 -23 -70 11 -128 101 -173 117
-59 160 -132 160 -273 0 -78 0 -80 38 -117 91 -91 222 -37 222 92 0 59 -32
100 -104 133 -59 26 -118 84 -141 137 -9 24 -15 68 -15 120 0 94 -18 136 -69
163 -30 15 -81 19 -111 8z" style=""></path>
      <path d="M2453 2312 c-17 -9 -52 -30 -77 -45 -86 -54 -192 -48 -285 16 -102
69 -213 26 -228 -90 -9 -71 72 -150 144 -139 17 2 62 23 98 45 109 65 196 67
298 5 70 -43 111 -51 160 -31 98 41 102 188 6 239 -42 23 -75 23 -116 0z" style=""></path>
      <path d="M2124 2031 c-21 -13 -38 -36 -49 -65 -17 -44 -17 -48 0 -92 26 -68
59 -84 170 -84 140 -1 209 -40 266 -153 34 -67 76 -97 134 -97 134 0 182 172
68 247 -20 13 -45 17 -114 15 -142 -4 -213 37 -274 159 -15 28 -40 58 -58 69
-41 25 -103 25 -143 1z" style=""></path>
      <path d="M485 1801 c-83 -57 -85 -177 -3 -226 26 -15 53 -19 128 -20 77 0 103
-5 135 -22 49 -26 96 -75 123 -128 53 -106 154 -132 227 -59 59 59 53 140 -14
197 -31 25 -38 27 -125 26 -72 -1 -102 3 -137 18 -55 25 -103 72 -133 132 -35
68 -67 93 -123 98 -37 3 -55 -1 -78 -16z" style=""></path>
      <path d="M2164 1701 c-20 -12 -38 -36 -49 -65 -30 -77 -3 -132 85 -176 79 -40
114 -72 144 -132 22 -44 26 -65 26 -140 0 -83 1 -89 31 -123 19 -21 46 -39 71
-45 34 -10 46 -8 84 10 51 25 77 66 77 121 0 58 -30 96 -99 129 -71 33 -135
100 -152 158 -7 22 -12 73 -12 113 0 56 -5 82 -20 106 -37 61 -124 82 -186 44z" style=""></path>
      <path d="M2051 1402 c-83 -42 -98 -125 -39 -214 77 -116 79 -211 6 -323 -69
-109 -19 -225 97 -225 48 0 92 24 115 63 31 50 26 96 -16 157 -80 116 -84 205
-13 321 37 62 41 75 36 115 -5 51 -34 89 -84 110 -42 18 -61 18 -102 -4z" style=""></path>
      <path d="M1167 1299 c-16 -4 -44 -19 -62 -34 -99 -75 -226 -73 -337 7 -22 15
-46 22 -77 22 -82 0 -131 -52 -131 -139 0 -37 6 -52 33 -81 26 -29 42 -37 80
-41 42 -5 54 -1 114 35 123 74 214 76 323 7 87 -56 179 -40 211 37 45 109 -45
219 -154 187z" style=""></path>
      <path d="M1769 1193 c-46 -28 -59 -63 -59 -153 0 -46 -5 -100 -12 -122 -16
-55 -81 -124 -148 -158 -41 -21 -62 -38 -74 -63 -49 -104 26 -209 139 -194 46
7 105 61 106 99 0 13 1 61 2 108 2 72 6 92 29 131 29 50 74 89 129 112 19 8
47 29 62 46 49 58 30 161 -35 197 -32 18 -108 17 -139 -3z" style=""></path>
      <path d="M1452 1159 c-35 -18 -49 -33 -77 -88 -60 -119 -128 -160 -261 -161
-68 0 -87 -4 -115 -23 -42 -28 -59 -60 -59 -113 0 -57 34 -105 87 -124 39 -13
46 -12 90 6 43 17 52 27 85 89 62 119 138 165 270 165 43 0 80 6 99 15 70 37
91 137 42 196 -26 30 -77 59 -105 59 -7 0 -32 -10 -56 -21z" style=""></path>
    </g>
    <g>
      <path d="M7495 2395 c-47 -17 -81 -55 -95 -107 -7 -23 -9 -278 -8 -705 3 -653
3 -669 24 -707 30 -57 64 -79 131 -84 48 -3 64 0 92 20 77 53 75 44 81 386 6
332 8 343 62 399 79 82 210 62 266 -41 15 -27 18 -73 22 -336 l5 -305 27 -46
c35 -60 81 -83 153 -77 60 5 95 27 127 83 23 40 23 42 23 395 0 318 -2 361
-18 411 -72 217 -331 314 -571 213 -33 -14 -69 -28 -78 -31 -17 -5 -18 9 -18
204 0 199 -1 212 -23 254 -16 31 -36 51 -67 67 -51 25 -79 27 -135 7z" style=""></path>
      <path d="M3151 2280 c-44 -10 -81 -39 -106 -81 -19 -33 -20 -52 -20 -659 l0
-625 25 -44 c33 -59 76 -84 146 -83 66 0 110 24 139 72 18 32 20 57 25 285 l5
250 300 0 300 0 5 -245 c5 -262 8 -278 62 -327 77 -71 221 -36 264 64 21 48
21 1248 0 1296 -33 76 -111 115 -196 96 -53 -12 -86 -40 -111 -94 -16 -35 -19
-67 -19 -257 l0 -218 -305 0 -305 0 0 223 c0 211 -1 225 -22 267 -34 67 -108
98 -187 80z" style=""></path>
      <path d="M6509 1930 c-55 -9 -116 -40 -163 -80 l-34 -31 -29 40 c-72 101 -214
94 -268 -14 -19 -39 -20 -63 -23 -683 -2 -450 1 -655 9 -684 39 -145 237 -166
304 -32 17 34 20 64 23 227 2 103 7 187 11 185 3 -2 30 -16 60 -32 144 -75
352 -40 481 80 82 76 139 185 171 324 18 78 15 233 -5 309 -49 187 -177 334
-326 374 -72 20 -154 26 -211 17z m66 -311 c131 -36 202 -241 133 -389 -57
-124 -162 -169 -268 -115 -147 75 -169 348 -37 460 33 28 62 41 127 54 3 0 23
-4 45 -10z" style=""></path>
      <path d="M9121 1924 c-130 -35 -261 -146 -325 -275 -66 -135 -82 -316 -41
-469 68 -255 309 -427 544 -389 75 12 108 27 162 76 22 20 41 34 42 32 57 -84
93 -109 157 -109 74 0 139 53 160 131 7 26 10 186 8 467 l-3 427 -24 38 c-42
68 -143 97 -211 62 -15 -8 -42 -31 -58 -51 l-30 -36 -58 41 c-96 69 -203 87
-323 55z m199 -305 c94 -22 155 -105 167 -231 15 -160 -82 -288 -217 -288
-103 0 -166 58 -196 183 -37 150 33 310 147 337 46 11 48 11 99 -1z" style=""></path>
      <path d="M4747 1915 c-82 -29 -116 -90 -98 -175 6 -28 83 -222 171 -432 88
-209 160 -389 160 -398 0 -10 -33 -93 -72 -186 -62 -143 -73 -177 -73 -224 1
-92 60 -148 165 -157 55 -5 98 19 134 74 13 21 142 322 287 668 232 557 263
636 263 685 1 42 -4 63 -21 86 -44 61 -159 92 -221 60 -47 -24 -68 -65 -176
-336 -54 -135 -99 -246 -101 -248 -1 -2 -46 106 -99 240 -101 256 -131 315
-176 342 -34 19 -91 20 -143 1z" style=""></path>
    </g>
  </g>
</svg>